<svg id="visual" viewBox="0 0 960 300" width="960" height="300" xmlns="http://www.w3.org/2000/svg" xmlns:xlink="http://www.w3.org/1999/xlink" version="1.1"><path d="M0 276L17.8 277.8C35.7 279.7 71.3 283.3 106.8 286.2C142.3 289 177.7 291 213.2 289.8C248.7 288.7 284.3 284.3 320 283.5C355.7 282.7 391.3 285.3 426.8 285.5C462.3 285.7 497.7 283.3 533.2 282.5C568.7 281.7 604.3 282.3 640 282.7C675.7 283 711.3 283 746.8 284.2C782.3 285.3 817.7 287.7 853.2 287.2C888.7 286.7 924.3 283.3 942.2 281.7L960 280L960 301L942.2 301C924.3 301 888.7 301 853.2 301C817.7 301 782.3 301 746.8 301C711.3 301 675.7 301 640 301C604.3 301 568.7 301 533.2 301C497.7 301 462.3 301 426.8 301C391.3 301 355.7 301 320 301C284.3 301 248.7 301 213.2 301C177.7 301 142.3 301 106.8 301C71.3 301 35.7 301 17.8 301L0 301Z" fill="#1a1a1a" stroke-linecap="round" stroke-linejoin="miter"></path></svg>