<svg id="visual" viewBox="0 0 960 300" width="960" height="300" xmlns="http://www.w3.org/2000/svg" xmlns:xlink="http://www.w3.org/1999/xlink" version="1.1"><path d="M0 21L12.3 21.8C24.7 22.7 49.3 24.3 74 26.7C98.7 29 123.3 32 148 32C172.7 32 197.3 29 221.8 29.7C246.3 30.3 270.7 34.7 295.2 33.8C319.7 33 344.3 27 369 27C393.7 27 418.3 33 443 36C467.7 39 492.3 39 517 38.7C541.7 38.3 566.3 37.7 591 34.8C615.7 32 640.3 27 664.8 27.3C689.3 27.7 713.7 33.3 738.2 34C762.7 34.7 787.3 30.3 812 28.5C836.7 26.7 861.3 27.3 886 27C910.7 26.7 935.3 25.3 947.7 24.7L960 24L960 0L947.7 0C935.3 0 910.7 0 886 0C861.3 0 836.7 0 812 0C787.3 0 762.7 0 738.2 0C713.7 0 689.3 0 664.8 0C640.3 0 615.7 0 591 0C566.3 0 541.7 0 517 0C492.3 0 467.7 0 443 0C418.3 0 393.7 0 369 0C344.3 0 319.7 0 295.2 0C270.7 0 246.3 0 221.8 0C197.3 0 172.7 0 148 0C123.3 0 98.7 0 74 0C49.3 0 24.7 0 12.3 0L0 0Z" fill="#f2f2f2" stroke-linecap="round" stroke-linejoin="miter"></path></svg>