<svg id="visual" viewBox="0 0 960 300" width="960" height="300" xmlns="http://www.w3.org/2000/svg" xmlns:xlink="http://www.w3.org/1999/xlink" version="1.1"><path d="M0 282L12.3 282.3C24.7 282.7 49.3 283.3 74 283.3C98.7 283.3 123.3 282.7 148 283.2C172.7 283.7 197.3 285.3 221.8 285C246.3 284.7 270.7 282.3 295.2 282.5C319.7 282.7 344.3 285.3 369 286.7C393.7 288 418.3 288 443 287.3C467.7 286.7 492.3 285.3 517 284.3C541.7 283.3 566.3 282.7 591 283.7C615.7 284.7 640.3 287.3 664.8 288.7C689.3 290 713.7 290 738.2 289C762.7 288 787.3 286 812 284.8C836.7 283.7 861.3 283.3 886 283.8C910.7 284.3 935.3 285.7 947.7 286.3L960 287L960 301L947.7 301C935.3 301 910.7 301 886 301C861.3 301 836.7 301 812 301C787.3 301 762.7 301 738.2 301C713.7 301 689.3 301 664.8 301C640.3 301 615.7 301 591 301C566.3 301 541.7 301 517 301C492.3 301 467.7 301 443 301C418.3 301 393.7 301 369 301C344.3 301 319.7 301 295.2 301C270.7 301 246.3 301 221.8 301C197.3 301 172.7 301 148 301C123.3 301 98.7 301 74 301C49.3 301 24.7 301 12.3 301L0 301Z" fill="#f2f2f2" stroke-linecap="round" stroke-linejoin="miter"></path></svg>