<svg id="visual" viewBox="0 0 960 300" width="960" height="300" xmlns="http://www.w3.org/2000/svg" xmlns:xlink="http://www.w3.org/1999/xlink" version="1.1">
    <defs>
        <linearGradient id="gradient1" x1="0%" y1="0%" x2="100%" y2="100%">
            <stop offset="0%" style="stop-color:#f2f2f2;stop-opacity:1" />
            <stop offset="100%" style="stop-color:#c4c4c4;stop-opacity:1" />
        </linearGradient>
    </defs>
    <path d="M0 66L10.7 69.2C21.3 72.3 42.7 78.7 64 79C85.3 79.3 106.7 73.7 128 65.7C149.3 57.7 170.7 47.3 192 41C213.3 34.7 234.7 32.3 256 36.2C277.3 40 298.7 50 320 50.2C341.3 50.3 362.7 40.7 384 36.3C405.3 32 426.7 33 448 39.5C469.3 46 490.7 58 512 59.8C533.3 61.7 554.7 53.3 576 56.7C597.3 60 618.7 75 640 80.5C661.3 86 682.7 82 704 71.3C725.3 60.7 746.7 43.3 768 39.2C789.3 35 810.7 44 832 53.2C853.3 62.3 874.7 71.7 896 70C917.3 68.3 938.7 55.7 949.3 49.3L960 43L960 0L949.3 0C938.7 0 917.3 0 896 0C874.7 0 853.3 0 832 0C810.7 0 789.3 0 768 0C746.7 0 725.3 0 704 0C682.7 0 661.3 0 640 0C618.7 0 597.3 0 576 0C554.7 0 533.3 0 512 0C490.7 0 469.3 0 448 0C426.7 0 405.3 0 384 0C362.7 0 341.3 0 320 0C298.7 0 277.3 0 256 0C234.7 0 213.3 0 192 0C170.7 0 149.3 0 128 0C106.7 0 85.3 0 64 0C42.7 0 21.3 0 10.7 0L0 0Z" fill="url(#gradient1)" stroke-linecap="round" stroke-linejoin="miter">
    </path>
</svg>