<svg id="visual" viewBox="0 0 960 300" width="960" height="300" xmlns="http://www.w3.org/2000/svg" xmlns:xlink="http://www.w3.org/1999/xlink" version="1.1"><path d="M0 11L12.3 12.2C24.7 13.3 49.3 15.7 74 16.3C98.7 17 123.3 16 148 16C172.7 16 197.3 17 221.8 16.5C246.3 16 270.7 14 295.2 13.3C319.7 12.7 344.3 13.3 369 13C393.7 12.7 418.3 11.3 443 10.7C467.7 10 492.3 10 517 10.8C541.7 11.7 566.3 13.3 591 13C615.7 12.7 640.3 10.3 664.8 10.3C689.3 10.3 713.7 12.7 738.2 12.7C762.7 12.7 787.3 10.3 812 9.8C836.7 9.3 861.3 10.7 886 12.5C910.7 14.3 935.3 16.7 947.7 17.8L960 19L960 0L947.7 0C935.3 0 910.7 0 886 0C861.3 0 836.7 0 812 0C787.3 0 762.7 0 738.2 0C713.7 0 689.3 0 664.8 0C640.3 0 615.7 0 591 0C566.3 0 541.7 0 517 0C492.3 0 467.7 0 443 0C418.3 0 393.7 0 369 0C344.3 0 319.7 0 295.2 0C270.7 0 246.3 0 221.8 0C197.3 0 172.7 0 148 0C123.3 0 98.7 0 74 0C49.3 0 24.7 0 12.3 0L0 0Z" fill="#1a1a1a" stroke-linecap="round" stroke-linejoin="miter"></path></svg>